<svg xmlns="http://www.w3.org/2000/svg" version="1.1" xmlns:xlink="http://www.w3.org/1999/xlink" xmlns:svgjs="http://svgjs.dev/svgjs" width="750" height="515" viewBox="0 0 312 312" class="svg-animations " style="background: rgb(19, 14, 74);"><svg viewBox="0 0 259.9999694824219 169.9633026123047" width="75" height="75" x="118.5" y="93.29611587524414" style="fill: rgb(170, 164, 242);"><svg xmlns="http://www.w3.org/2000/svg" viewBox="0 0 44.2 28.05"><path d="m0,14.05c0-.73.31-1.3.93-1.72l11.06-7.24c.14-.11.35-.17.63-.17.48,0,.93.21,1.37.63.43.42.65.91.65,1.47s-.21.94-.63,1.22l-8.87,5.8,8.87,5.81c.42.22.63.63.63,1.22s-.22,1.04-.65,1.45c-.43.41-.89.61-1.37.61-.28,0-.49-.06-.63-.17L.93,15.73c-.62-.42-.93-.98-.93-1.68Zm16.96,12.72c-.04-.22-.03-.44.02-.64L24.7.98c.14-.53.51-.85,1.12-.96.44-.07.87,0,1.28.25.41.24.65.59.73,1.03.04.25.02.48-.05.69l-7.69,25c-.16.57-.57.91-1.24,1.02-.47.08-.88-.01-1.24-.28-.36-.27-.57-.59-.63-.98Zm13.3-4.24c-.44-.41-.65-.89-.65-1.45s.2-.97.59-1.22l8.88-5.81-8.88-5.8c-.39-.31-.59-.72-.59-1.22,0-.56.22-1.05.65-1.47s.89-.63,1.37-.63c.25,0,.45.06.59.17l11.06,7.24c.62.42.92,1,.92,1.72s-.31,1.29-.92,1.68l-11.06,7.24c-.14.11-.34.17-.59.17-.48,0-.93-.2-1.37-.61Z"></path></svg></svg><text fill="#8b81ff" font-family="Helvetica" font-size="38px" x="31.202177608244625" y="202.62621307373047"><tspan dy="0" x="31.202177608244625">Agile Software</tspan></text><text fill="#aaa4f2" font-family="Impact" font-size="19px" x="156" y="218.70388412475586"><tspan dy="0" x="156"></tspan></text></svg>