<svg xmlns="http://www.w3.org/2000/svg" version="1.1" xmlns:xlink="http://www.w3.org/1999/xlink" xmlns:svgjs="http://svgjs.dev/svgjs" width="750" height="515" viewBox="0 0 312 312" class="svg-animations " style="background: rgb(19, 14, 74);"><svg viewBox="0 0 141.6454620361328 135" width="80" height="80" x="116" y="82.11261940002441" style="fill: rgb(170, 164, 242);"><svg width="142" height="130" viewBox="0 0 142 130" xmlns="http://www.w3.org/2000/svg">
<path d="M88.4354 37.6296C82.3802 27.0833 76.3583 16.5361 70.1883 6.07141C69.6948 5.2485 68.1649 4.64023 67.1112 4.60694C61.5174 4.49217 55.9062 4.49217 50.3123 4.55759C48.8318 1.84328 45.936 0 42.6286 0C37.8083 0 33.8924 3.91591 33.8924 8.73616C33.8924 13.5564 37.8083 17.4723 42.6286 17.4723C45.9031 17.4723 48.7654 15.6624 50.2629 12.9803C54.2444 12.9803 58.1283 12.9803 62.0107 13.0296C63.0642 13.0457 64.5769 13.227 65.0704 13.9179C66.699 16.1881 67.95 18.7223 69.6612 21.6845H65.5146C56.3342 21.6845 47.1527 21.6512 37.9723 21.7338C36.8039 21.7499 35.126 21.8819 34.5658 22.6222C32.9694 24.7775 31.8343 27.2623 30.2218 30.1578H34.171C45.4254 30.1578 56.6795 30.4206 67.918 30.0258C72.8864 29.8617 76.1779 31.0128 78.0039 35.8344C78.432 36.9695 79.8471 38.2859 80.9982 38.4833C83.4164 38.8942 85.9503 38.6153 88.4192 38.6153C88.4364 38.0553 88.5351 37.7763 88.4364 37.6283L88.4354 37.6296ZM45.7888 12.9657C44.9005 13.6233 43.7976 14.0192 42.613 14.0192C39.6841 14.0192 37.3153 11.6332 37.3153 8.72155C37.3153 5.79261 39.7014 3.42385 42.613 3.42385C43.9455 3.42385 45.1632 3.91737 46.0847 4.7242C47.2037 5.69515 47.9106 7.12633 47.9106 8.72266C47.9267 10.4477 47.088 11.9949 45.7888 12.9657Z"></path>
<path d="M102.224 116.377C102.141 116.525 102.06 116.657 101.961 116.805C101.698 116.623 101.402 116.475 101.106 116.345C101.484 116.359 101.845 116.359 102.224 116.377Z"></path>
<path d="M59.2806 113.447C54.0816 103.476 49.0959 93.3742 43.5514 83.5845C41.0999 79.2575 40.6066 75.802 44.0289 71.9687C44.8346 71.0643 45.3453 69.1878 44.9826 68.1021C44.2263 65.7654 42.8112 63.6594 41.659 61.472C41.1816 61.6855 40.9027 61.7348 40.804 61.8829C34.2552 72.1169 27.6903 82.3509 21.2735 92.6683C20.7639 93.4912 20.9281 95.1359 21.4055 96.0748C23.8903 101.076 26.4726 106.029 29.1054 110.965C28.069 112.396 27.4596 114.157 27.4596 116.065C27.4596 120.886 31.3755 124.801 36.1958 124.801C41.016 124.801 44.9319 120.886 44.9319 116.065C44.9319 111.425 41.296 107.608 36.7052 107.345C34.8299 103.741 33.0026 100.237 31.2101 96.7003C30.7326 95.7626 30.207 94.3314 30.5846 93.5739C31.8356 91.0891 33.5135 88.803 35.3396 85.9233C36.2119 87.6012 36.7387 88.5883 37.2643 89.5924C41.5096 97.7366 45.7378 105.882 50.0486 113.993C50.5915 115.029 51.497 116.46 52.4014 116.592C55.0502 117.003 57.7816 116.872 61.0882 116.954C60.3169 115.423 59.8073 114.436 59.2806 113.448L59.2806 113.447ZM38.8951 111.473C40.4583 112.395 41.5107 114.106 41.5107 116.047C41.5107 118.976 39.1247 121.344 36.213 121.344C33.3013 121.344 30.9153 118.958 30.9153 116.047C30.9153 115.504 30.998 114.993 31.146 114.5C31.8037 112.328 33.8282 110.748 36.2131 110.748C37.2001 110.749 38.1216 111.012 38.8951 111.473Z"></path>
<path d="M133.171 60.0885C128.351 60.0885 124.435 64.0044 124.435 68.8246C124.435 70.6839 125.011 72.4112 126.014 73.8262C124.303 76.6564 122.608 79.42 120.898 82.1677C120.339 83.056 119.384 84.2577 118.545 84.3231C115.764 84.5366 112.951 84.2898 109.528 84.2244C110.499 82.6119 111.092 81.6409 111.684 80.6872C116.439 72.8392 121.227 64.9901 125.932 57.1101C126.525 56.107 127.282 54.5932 126.935 53.7371C125.915 51.2524 124.385 48.9983 122.74 46.1186C121.835 47.5992 121.259 48.5541 120.699 49.4916C114.874 59.1174 108.803 68.6098 103.308 78.4169C100.89 82.7439 98.1916 84.9657 93.1234 84.0281C91.9218 83.8146 90.0637 84.3403 89.3062 85.2125C87.7098 87.0718 86.6413 89.3752 85.3571 91.4974C85.7852 91.7935 85.9654 92.0242 86.1467 92.0242C98.2893 92.3203 110.448 92.6325 122.591 92.7806C123.545 92.7966 124.878 91.7935 125.437 90.9052C128.234 86.5119 130.932 82.053 133.598 77.5783C138.205 77.3476 141.891 73.5304 141.891 68.858C141.908 64.0042 137.993 60.0883 133.172 60.0883L133.171 60.0885ZM136.084 73.2515C135.245 73.8104 134.258 74.1237 133.172 74.1237C130.786 74.1237 128.779 72.5445 128.105 70.3891C127.957 69.8956 127.874 69.3688 127.874 68.8259C127.874 66.2425 129.734 64.0709 132.201 63.6096C132.235 63.5603 132.267 63.4949 132.316 63.4283C132.349 63.4776 132.365 63.527 132.399 63.5763C132.662 63.5431 132.926 63.5109 133.188 63.5109C136.117 63.5109 138.486 65.897 138.486 68.8086C138.469 70.6851 137.515 72.3139 136.084 73.2515Z"></path>
<path d="M101.104 116.341C101.401 116.473 101.697 116.621 101.96 116.802C102.042 116.67 102.124 116.522 102.222 116.374C101.845 116.357 101.483 116.357 101.104 116.341Z"></path>
<path d="M108.691 99.412C97.4536 99.0505 86.1992 98.425 74.9612 98.4583C69.9929 98.4744 66.7346 97.2073 65.0728 92.3376C64.6779 91.1853 63.2961 89.8207 62.161 89.6061C59.7589 89.1287 57.2247 89.3261 54.74 89.2446C54.6906 89.7714 54.5919 90.0342 54.6746 90.1983C60.3845 100.926 66.077 111.669 71.9015 122.332C72.3618 123.171 73.8756 123.83 74.9293 123.896C80.2605 124.176 85.5913 124.34 90.9225 124.472C92.2057 127.697 95.3652 130 99.0505 130C103.871 130 107.787 126.084 107.787 121.264C107.787 116.444 103.871 112.528 99.0505 112.528C96.1709 112.528 93.6047 113.927 92.0255 116.082C88.0441 115.95 84.1602 115.819 80.2936 115.654C79.2401 115.605 77.7274 115.374 77.2659 114.667C75.7188 112.348 74.5344 109.78 72.939 106.752C74.8315 106.818 75.9494 106.851 77.0855 106.884C86.2659 107.181 95.4475 107.493 104.628 107.723C105.796 107.757 107.49 107.674 108.05 106.95C109.712 104.844 110.93 102.392 112.641 99.562C110.911 99.4954 109.794 99.4621 108.691 99.4128L108.691 99.412ZM97.3549 116.228C97.8978 116.047 98.4739 115.932 99.0822 115.932C99.8064 115.932 100.481 116.08 101.123 116.343C101.502 116.359 101.863 116.359 102.242 116.376C102.159 116.524 102.078 116.656 101.979 116.804C103.427 117.758 104.381 119.388 104.381 121.247C104.381 124.176 101.995 126.545 99.0834 126.545C97.4055 126.545 95.9076 125.755 94.9368 124.537C94.2127 123.633 93.7846 122.497 93.7846 121.247C93.7673 118.909 95.265 116.935 97.3549 116.228Z"></path>
<path d="M58.7047 35.902C46.5783 35.2271 34.4354 34.5202 22.2928 33.9934C21.3391 33.944 19.9894 34.8977 19.3811 35.7872C16.2053 40.4594 13.1285 45.1983 10.1008 49.9533C9.73924 49.9039 9.36051 49.8879 8.98176 49.8879C4.16151 49.8879 0.245605 53.8038 0.245605 58.624C0.245605 63.4443 4.16151 67.3602 8.98176 67.3602C13.802 67.3602 17.7179 63.4443 17.7179 58.624C17.7179 57.3076 17.4218 56.0578 16.895 54.9388C19.1824 51.4336 21.4032 48.0283 23.6412 44.6554C24.2173 43.7831 25.2204 42.6148 26.0594 42.5654C28.8403 42.4334 31.6533 42.7628 35.0597 42.9603C34.0233 44.5395 33.4139 45.4944 32.8056 46.4319C27.8041 54.1318 22.7691 61.8155 17.8166 69.5489C17.1911 70.536 16.3854 72.0165 16.6976 72.8887C17.6352 75.4056 19.0997 77.7089 20.6467 80.6379C21.5844 79.1895 22.1938 78.2519 22.802 77.3302C28.9389 67.9018 35.3063 58.6065 41.0985 48.981C43.6648 44.7196 46.4297 42.5974 51.4644 43.6992C52.6488 43.962 54.5242 43.4857 55.3148 42.6295C56.9767 40.8196 58.1117 38.5494 59.4614 36.4757C59.0494 36.1325 58.8852 35.9191 58.7039 35.9018L58.7047 35.902ZM14.2806 58.9696C14.0992 61.7172 11.7958 63.9059 8.99874 63.9059C6.06981 63.9059 3.70105 61.5199 3.70105 58.6082C3.70105 56.0087 5.5936 53.8373 8.07736 53.3919C8.37346 53.3426 8.68563 53.3093 8.99895 53.3093C11.9279 53.3093 14.2966 55.6954 14.2966 58.607C14.2806 58.7229 14.2806 58.8549 14.2806 58.9696Z"></path>
<path d="M121.492 30.6868C118.909 25.8666 116.21 21.0945 113.479 16.3395C114.417 14.9405 114.977 13.2624 114.977 11.4525C114.977 6.63229 111.061 2.71639 106.241 2.71639C101.42 2.71639 97.5043 6.63229 97.5043 11.4525C97.5043 16.1741 101.288 20.0406 105.978 20.1887C107.92 23.6445 109.811 27.0004 111.654 30.3734C112.164 31.2949 112.74 32.7101 112.378 33.4836C111.21 36.0177 109.615 38.3532 107.87 41.2822C106.949 39.6364 106.39 38.6494 105.83 37.6784C101.321 29.6823 96.8467 21.6692 92.2717 13.6893C91.6956 12.669 90.7419 11.2711 89.8363 11.1552C87.1714 10.8258 84.4399 11.0565 81.1322 11.0726C81.9872 12.5864 82.5312 13.5401 83.0741 14.511C88.6024 24.317 93.8843 34.2548 99.7411 43.8474C102.325 48.0927 102.933 51.5312 99.6263 55.4806C98.8528 56.4182 98.3925 58.2936 98.7873 59.3803C99.6263 61.6837 101.107 63.7566 102.325 65.9117C102.802 65.681 103.081 65.6317 103.163 65.4676C109.383 55.0199 115.618 44.5888 121.707 34.0739C122.215 33.2694 122.002 31.6236 121.492 30.686L121.492 30.6868ZM111.373 12.8185C110.781 15.0886 108.708 16.7676 106.239 16.7676C105.318 16.7676 104.429 16.5208 103.673 16.1099C102.044 15.2056 100.941 13.4611 100.941 11.4698V11.2724C101.056 8.44217 103.393 6.17213 106.239 6.17213C109.168 6.17213 111.537 8.5582 111.537 11.4698C111.554 11.9301 111.488 12.3743 111.373 12.8185Z"></path>
</svg></svg><text fill="#8b81ff" font-family="Saira Stencil One" font-size="38px" x="134.49854278564453" y="205.32815434354006"><tspan dy="0" x="134.49854278564453">ㅤ</tspan></text><text fill="#aaa4f2" font-family="PT Sans" font-size="19px" x="156" y="229.8873805999756"><tspan dy="0" x="156"></tspan></text></svg>